<svg height="400" viewBox="0 0 188.37 126.6" width="700" xmlns="http://www.w3.org/2000/svg"><path d="m133.874 124.643a1.58 1.58 0 0 0 1.6-1.6v-2.6a1.58 1.58 0 0 0 -1.6-1.6h-22.8a1.58 1.58 0 0 0 -1.6 1.6v2.6a1.58 1.58 0 0 0 1.6 1.6z" fill="#ff2e93"/><path d="m75.756 23.35a1.58 1.58 0 0 0 1.6-1.6v-2.6a1.58 1.58 0 0 0 -1.6-1.6h-22.8a1.58 1.58 0 0 0 -1.6 1.6v2.6a1.58 1.58 0 0 0 1.6 1.6z" fill="#142664"/><path d="m157.57 94.5a4.012 4.012 0 0 0 4 4h22.8a3.631 3.631 0 0 0 2.8-1.2 3.949 3.949 0 0 0 1.2-2.8v-7.6a3.631 3.631 0 0 0 -1.2-2.8 3.949 3.949 0 0 0 -2.8-1.2h-7.7a2.582 2.582 0 0 0 -2.6 2.6 2.732 2.732 0 0 1 -2.7 2.7h-9.8a4.012 4.012 0 0 0 -4 4z" fill="#00e6b3"/><path d="m0 114.4a4.012 4.012 0 0 0 4 4h22.8a3.631 3.631 0 0 0 2.8-1.2 3.949 3.949 0 0 0 1.2-2.8v-7.6a3.631 3.631 0 0 0 -1.2-2.8 3.949 3.949 0 0 0 -2.8-1.2h-7.7a2.582 2.582 0 0 0 -2.6 2.6 2.732 2.732 0 0 1 -2.7 2.7h-9.8a4.012 4.012 0 0 0 -4 4z" fill="#142664"/><path d="m59.106 50.65a4.012 4.012 0 0 1 4-4h30.3a4.012 4.012 0 0 1 4 4v11.4a4.012 4.012 0 0 1 -4 4h-19.1a3.329 3.329 0 0 1 -3.3-3.3 3.329 3.329 0 0 0 -3.3-3.3h-4.7a3.631 3.631 0 0 1 -2.8-1.2 3.949 3.949 0 0 1 -1.2-2.8c.1-1.4.1-3.2.1-4.8z" fill="#00e6b3"/><path d="m93.556 53.7a4.012 4.012 0 0 1 -4-4v-7.7a4.012 4.012 0 0 1 4-4h7.7a4.012 4.012 0 0 1 4 4v7.7a4.012 4.012 0 0 1 -4 4z" fill="#ff2e93"/><path d="m86.02 105.1a1.324 1.324 0 0 0 1.3-1.3v-3.8a1.324 1.324 0 0 0 -1.3-1.3h-3.8a1.324 1.324 0 0 0 -1.3 1.3v3.8a1.324 1.324 0 0 0 1.3 1.3z" fill="#142664"/><path d="m113.92 4.3a1.324 1.324 0 0 0 1.3-1.3v-1.7a1.324 1.324 0 0 0 -1.3-1.3h-1.7a1.324 1.324 0 0 0 -1.3 1.3v1.7a1.324 1.324 0 0 0 1.3 1.3z" fill="#142664"/><path d="m160.706 59.2a1.324 1.324 0 0 0 1.3-1.3v-1.7a1.324 1.324 0 0 0 -1.3-1.3h-1.7a1.324 1.324 0 0 0 -1.3 1.3v1.7a1.324 1.324 0 0 0 1.3 1.3z" fill="#00e6b3"/><path d="m137.27 86.1a1.324 1.324 0 0 0 1.3-1.3v-1.7a1.324 1.324 0 0 0 -1.3-1.3h-1.7a1.324 1.324 0 0 0 -1.3 1.3v1.7a1.324 1.324 0 0 0 1.3 1.3z" fill="#142664"/><g fill="#ff2e93"><path d="m176.47 123.3a1.324 1.324 0 0 0 1.3-1.3v-1.7a1.324 1.324 0 0 0 -1.3-1.3h-1.7a1.324 1.324 0 0 0 -1.3 1.3v1.7a1.324 1.324 0 0 0 1.3 1.3z"/><path d="m59.856 85.5a1.324 1.324 0 0 0 1.3-1.3v-1.7a1.324 1.324 0 0 0 -1.3-1.3h-1.7a1.324 1.324 0 0 0 -1.3 1.3v1.7a1.324 1.324 0 0 0 1.3 1.3z"/><path d="m11.618 17.7a1.324 1.324 0 0 0 1.3-1.3v-1.7a1.324 1.324 0 0 0 -1.3-1.3h-1.7a1.324 1.324 0 0 0 -1.3 1.3v1.7a1.324 1.324 0 0 0 1.3 1.3z"/><path d="m133.856 49.05a1.324 1.324 0 0 0 1.3-1.3v-3.8a1.324 1.324 0 0 0 -1.3-1.3h-3.8a1.324 1.324 0 0 0 -1.3 1.3v3.8a1.324 1.324 0 0 0 1.3 1.3z"/></g><path d="m9.468 66.85a1.324 1.324 0 0 0 1.3-1.3v-3.8a1.324 1.324 0 0 0 -1.3-1.3h-3.8a1.324 1.324 0 0 0 -1.3 1.3v3.8a1.324 1.324 0 0 0 1.3 1.3z" fill="#00e6b3"/><path d="m39.4 126.6a1.58 1.58 0 0 0 1.6-1.6v-8a1.58 1.58 0 0 0 -1.6-1.6h-15.4a1.58 1.58 0 0 0 -1.6 1.6v8a1.58 1.58 0 0 0 1.6 1.6z" fill="#ff2e93"/></svg>