<svg xmlns="http://www.w3.org/2000/svg" x="0px" y="0px"
width="60" height="60"
viewBox="0 0 480.007 480.007"
style=" fill:#fff;"><path d="M292.797,313.727c37.362,54.741,15.881,129.718-43.979,156.845c-1.071,0.485-2.193,0.715-3.297,0.715	c-8.557,0-11.133-11.742-3.307-15.289c50.867-23.051,69.106-86.751,37.369-133.251c-14.527-21.284-26.07-44.457-34.308-68.874	c-1.413-4.187,0.836-8.726,5.022-10.138c4.187-1.412,8.725,0.835,10.138,5.022C268.206,271.791,279.094,293.65,292.797,313.727z M145.991,104.758V98.48c0-4.418-3.582-8-8-8s-8,3.582-8,8v6.278c0,4.418,3.582,8,8,8S145.991,109.176,145.991,104.758z M187.166,90.48c-4.418,0-8,3.582-8,8v6.278c0,4.418,3.582,8,8,8s8-3.582,8-8V98.48C195.166,94.061,191.585,90.48,187.166,90.48z M181.935,169.998c-6.136,0-11.879-4.755-11.879-12.333l11.111-15.887c3.705-5.298-0.099-12.585-6.556-12.585H149.5	c-6.465,0-10.256,7.295-6.556,12.585l11.111,15.887c0,7.616-5.784,12.333-11.88,12.333c-4.418,0-8,3.582-8,8s3.582,8,8,8	c7.778,0,14.818-3.205,19.88-8.358c5.062,5.154,12.102,8.358,19.879,8.358c4.418,0,8-3.582,8-8S186.353,169.998,181.935,169.998z M315.24,114.281c1.097,4.28-1.484,8.639-5.764,9.735l-30.725,7.873c-0.768,17.493-5.427,34.332-13.576,49.529l34.631,18.85	c3.88,2.112,5.314,6.97,3.202,10.851c-2.113,3.882-6.973,5.314-10.851,3.202l-35.518-19.333	c-40.109,55.072-116.22,64.272-167.648,22.633c-5.816,22.408-14.021,60.528-44.462,105.125	C12.539,369.618,31.141,434.562,83.98,456.911c8.015,3.39,5.547,15.37-3.12,15.37c-1.04,0-2.096-0.204-3.113-0.634	c-62.317-26.358-84.008-102.872-46.434-157.92c29.192-42.771,36.403-77.833,44.397-108.632c-2.95-3.238-5.695-6.614-8.238-10.107	c-38.38,20.89-36.543,20.308-39.335,20.308c-8.231,0-11.115-11.064-3.832-15.028l34.631-18.85	c-8.149-15.197-12.809-32.036-13.576-49.529l-30.725-7.873c-4.28-1.097-6.86-5.455-5.764-9.735s5.459-6.859,9.735-5.764	l27.177,6.964c1.318-13.672,5.035-26.863,10.944-39.092C45.881,54.456,43.209,29.977,48.585,6.698	c0.759-3.286,3.497-5.743,6.846-6.143c21.386-2.561,43.423,3.741,60.647,18.852c28.6-12.379,61.697-12.951,91.875,0.07	C225.27,4.241,247.369-1.991,268.681,0.555c3.349,0.4,6.087,2.857,6.846,6.143c5.247,22.724,2.957,47.28-8.17,69.747	c5.906,12.261,9.62,25.528,10.951,39.042l27.197-6.969C309.784,107.419,314.143,110.001,315.24,114.281z M66.868,59.304	c8.758-12.248,20.164-23.267,33.76-31.776C89.491,19.566,76.409,15.684,63.047,16.03C60.695,30.458,61.938,45.26,66.868,59.304z M262.433,136.07c-19.942,5.11-18.897,4.939-20.282,4.939c-3.566,0-6.818-2.402-7.744-6.016c-1.097-4.28,1.484-8.639,5.764-9.735	l22.423-5.746c-1.008-13.74-4.868-27.256-11.332-39.471c-1.46-2.76-1.138-5.982,0.551-8.367c9.414-17.713,12.268-37.14,9.252-55.646	c-13.233-0.331-26.272,3.422-37.616,11.535c4.062,2.526,7.985,5.3,11.732,8.329c3.437,2.777,3.971,7.814,1.194,11.25	c-2.777,3.437-7.814,3.971-11.25,1.194C161.761-2.87,67.237,38.881,61.502,119.509l22.437,5.749c4.28,1.097,6.86,5.455,5.764,9.735	c-0.926,3.614-4.178,6.016-7.744,6.016c-1.384,0-0.333,0.173-20.282-4.939c1.248,13.522,5.177,26.278,11.251,37.731l5.2-2.831	c3.883-2.113,8.739-0.679,10.851,3.202c2.112,3.881,0.679,8.739-3.202,10.851l-4.237,2.306c40.441,53.596,120.574,53.614,161.029,0	l-4.238-2.307c-3.88-2.112-5.314-6.97-3.202-10.851c2.111-3.88,6.97-5.315,10.851-3.202l5.2,2.831	C257.256,162.349,261.185,149.593,262.433,136.07z M463.588,250.565c-19.871-0.497-35.793,4.398-47.334,14.545	c-26.705,23.482-14.118,60.51-33.462,77.409c-8.632,7.541-22.5,10.139-41.219,7.721c-4.377-0.562-8.393,2.528-8.958,6.91	s2.528,8.393,6.91,8.958c19.049,2.46,39.455,0.986,53.794-11.54c25.248-22.056,12.08-58.608,33.501-77.443	c8.419-7.403,20.645-10.961,36.369-10.565c4.404,0.077,8.087-3.381,8.197-7.798C471.496,254.346,468.005,250.676,463.588,250.565z M215.38,292.602c-4.334-0.863-8.543,1.957-9.403,6.292c-9.289,46.859-11.389,96.607-4.517,147.483	c1.288,9.54-6.238,17.63-15.469,17.63c-8.604,0-15.604-7-15.604-15.604V300.007c0-4.418-3.582-8-8-8s-8,3.582-8,8v148.396	c0,8.604-7,15.604-15.604,15.604c-9.227,0-16.758-8.086-15.469-17.63c6.408-47.438,5.446-97.226-4.517-147.483	c-0.859-4.333-5.063-7.148-9.403-6.292c-4.334,0.859-7.151,5.069-6.292,9.403c8.958,45.195,10.983,93.159,4.354,142.23	c-2.557,18.936,12.232,35.771,31.326,35.771c9.378,0,17.811-4.11,23.604-10.619c12.8,14.381,35.02,13.991,47.419-0.196	c5.989-6.852,8.726-15.948,7.51-24.957c-6.181-45.753-5.253-93.758,4.354-142.23C222.531,297.671,219.714,293.461,215.38,292.602z"></path></svg>